M48
; DRILL file {KiCad (6.0.4)} date Wed Nov  9 22:27:57 2022
; FORMAT={-:-/ absolute / metric / decimal}
; #@! TF.CreationDate,2022-11-09T22:27:57-08:00
; #@! TF.GenerationSoftware,Kicad,Pcbnew,(6.0.4)
; #@! TF.FileFunction,Plated,1,4,PTH
FMAT,2
METRIC
; #@! TA.AperFunction,Plated,PTH,ViaDrill
T1C0.300
; #@! TA.AperFunction,Plated,PTH,ComponentDrill
T2C0.300
; #@! TA.AperFunction,Plated,PTH,ComponentDrill
T3C0.500
; #@! TA.AperFunction,Plated,PTH,ComponentDrill
T4C0.600
; #@! TA.AperFunction,Plated,PTH,ComponentDrill
T5C0.850
; #@! TA.AperFunction,Plated,PTH,ComponentDrill
T6C0.950
; #@! TA.AperFunction,Plated,PTH,ComponentDrill
T7C1.000
; #@! TA.AperFunction,Plated,PTH,ComponentDrill
T8C1.200
; #@! TA.AperFunction,Plated,PTH,ComponentDrill
T9C2.570
; #@! TA.AperFunction,Plated,PTH,ComponentDrill
T10C3.200
%
G90
G05
T1
X22.85Y-14.425
X22.85Y-97.875
X22.85Y-131.45
X22.85Y-133.3
X22.85Y-134.775
X22.85Y-139.4
X22.85Y-169.2
X22.85Y-20.675
X22.85Y-28.35
X22.85Y-35.85
X22.85Y-43.4
X22.85Y-50.85
X22.85Y-58.3
X22.85Y-65.725
X22.85Y-73.525
X22.85Y-81.0
X22.85Y-83.55
X22.85Y-85.1
X22.85Y-93.375
X22.85Y-94.75
X22.85Y-96.3
X22.85Y-100.45
X22.85Y-102.725
X22.85Y-108.425
X22.85Y-115.725
X22.85Y-123.225
X22.85Y-129.95
X22.85Y-136.35
X22.85Y-137.95
X22.85Y-141.9
X22.85Y-145.8
X22.85Y-153.275
X22.85Y-160.75
X22.85Y-170.9
X22.85Y-178.225
X22.85Y-183.625
X22.9Y-188.9
X25.425Y-110.925
X25.425Y-113.35
X25.425Y-115.925
X25.425Y-118.35
X25.425Y-120.825
X25.6Y-132.1
X25.675Y-152.775
X25.675Y-155.35
X25.675Y-157.875
X25.675Y-160.4
X25.85Y-148.1
X25.9Y-104.35
X26.5Y-132.075
X26.875Y-108.225
X27.7Y-90.4
X27.7Y-91.4
X27.95Y-52.85
X28.2Y-14.425
X28.475Y-73.175
X29.075Y-82.525
X30.725Y-188.9
X31.4Y-78.275
X35.2Y-32.9
X35.75Y-14.425
X36.2Y-82.5
X36.25Y-86.775
X36.25Y-87.5
X36.25Y-88.425
X36.25Y-89.175
X36.25Y-90.275
X36.25Y-91.0
X36.25Y-91.925
X36.25Y-92.675
X36.25Y-93.775
X36.25Y-94.5
X36.25Y-95.425
X36.25Y-96.175
X36.25Y-97.275
X36.25Y-98.0
X36.25Y-98.925
X36.25Y-99.675
X36.25Y-100.775
X36.25Y-101.5
X36.25Y-102.425
X36.25Y-103.175
X36.25Y-104.275
X36.25Y-105.0
X36.25Y-105.925
X36.25Y-106.675
X36.25Y-107.775
X36.25Y-108.5
X36.25Y-109.425
X36.25Y-110.175
X36.25Y-111.3
X36.25Y-112.025
X36.25Y-112.95
X36.25Y-113.7
X36.25Y-114.8
X36.25Y-115.525
X36.25Y-116.45
X36.25Y-117.2
X36.25Y-118.3
X36.25Y-119.025
X36.25Y-119.95
X36.25Y-120.7
X36.25Y-121.8
X36.25Y-122.525
X36.25Y-123.45
X36.25Y-124.2
X36.25Y-125.325
X36.25Y-126.05
X36.25Y-126.975
X36.25Y-127.725
X36.25Y-128.825
X36.25Y-129.55
X36.25Y-130.475
X36.25Y-131.225
X36.25Y-132.325
X36.25Y-133.05
X36.25Y-133.975
X36.25Y-134.725
X36.25Y-135.825
X36.25Y-136.55
X36.25Y-137.475
X36.25Y-138.225
X36.25Y-139.325
X36.25Y-140.05
X36.25Y-140.975
X36.25Y-141.725
X36.25Y-142.825
X36.25Y-143.55
X36.25Y-144.475
X36.25Y-145.225
X36.25Y-146.325
X36.25Y-147.05
X36.25Y-147.975
X36.25Y-148.725
X36.25Y-149.825
X36.25Y-150.55
X36.25Y-151.475
X36.25Y-152.225
X36.25Y-153.325
X36.25Y-154.05
X36.25Y-154.975
X36.25Y-155.725
X36.25Y-156.825
X36.25Y-157.55
X36.25Y-158.475
X36.25Y-159.225
X36.25Y-160.325
X36.25Y-161.05
X36.25Y-161.975
X36.25Y-162.725
X36.25Y-163.825
X36.25Y-164.55
X36.25Y-165.475
X36.25Y-166.225
X36.25Y-167.325
X36.25Y-168.05
X36.8Y-32.95
X38.25Y-82.125
X38.275Y-188.9
X39.451Y-80.499
X39.75Y-86.8
X39.75Y-87.525
X39.75Y-88.45
X39.75Y-89.2
X39.75Y-90.3
X39.75Y-91.025
X39.75Y-91.95
X39.75Y-92.7
X39.75Y-93.8
X39.75Y-94.525
X39.75Y-95.45
X39.75Y-96.2
X39.75Y-97.3
X39.75Y-98.025
X39.75Y-98.95
X39.75Y-99.7
X39.75Y-100.8
X39.75Y-101.525
X39.75Y-102.45
X39.75Y-103.2
X39.75Y-104.3
X39.75Y-105.025
X39.75Y-105.95
X39.75Y-106.7
X39.75Y-107.8
X39.75Y-108.525
X39.75Y-109.45
X39.75Y-110.2
X39.75Y-111.325
X39.75Y-112.05
X39.75Y-112.975
X39.75Y-113.725
X39.75Y-114.825
X39.75Y-115.55
X39.75Y-116.475
X39.75Y-117.225
X39.75Y-118.325
X39.75Y-119.05
X39.75Y-119.975
X39.75Y-120.725
X39.75Y-121.825
X39.75Y-122.55
X39.75Y-123.475
X39.75Y-124.225
X39.75Y-125.35
X39.75Y-126.075
X39.75Y-127.0
X39.75Y-127.75
X39.75Y-128.85
X39.75Y-129.575
X39.75Y-130.5
X39.75Y-131.25
X39.75Y-132.35
X39.75Y-133.075
X39.75Y-134.0
X39.75Y-134.75
X39.75Y-135.85
X39.75Y-136.575
X39.75Y-137.5
X39.75Y-138.25
X39.75Y-139.35
X39.75Y-140.075
X39.75Y-141.0
X39.75Y-141.75
X39.75Y-142.85
X39.75Y-143.575
X39.75Y-144.5
X39.75Y-145.25
X39.75Y-146.35
X39.75Y-147.075
X39.75Y-148.0
X39.75Y-148.75
X39.75Y-149.85
X39.75Y-150.575
X39.75Y-151.5
X39.75Y-152.25
X39.75Y-153.35
X39.75Y-154.075
X39.75Y-155.0
X39.75Y-155.75
X39.75Y-156.85
X39.75Y-157.575
X39.75Y-158.5
X39.75Y-159.25
X39.75Y-160.35
X39.75Y-161.075
X39.75Y-162.0
X39.75Y-162.75
X39.75Y-163.85
X39.75Y-164.575
X39.75Y-165.5
X39.75Y-166.25
X39.75Y-167.35
X39.75Y-168.075
X40.95Y-51.5
X41.375Y-76.775
X41.45Y-32.25
X42.05Y-48.0
X43.1Y-46.7
X43.301Y-14.424
X43.4Y-81.525
X43.725Y-79.175
X44.475Y-35.575
X44.5Y-73.4
X44.525Y-171.35
X44.9Y-44.675
X44.925Y-40.525
X44.925Y-41.325
X44.925Y-42.15
X44.925Y-42.975
X44.925Y-43.825
X44.925Y-45.55
X45.675Y-188.9
X45.75Y-46.7
X46.175Y-180.125
X46.5Y-51.4
X47.575Y-182.65
X48.0Y-38.7
X48.2Y-178.55
X49.15Y-41.9
X49.5Y-27.5
X49.5Y-28.5
X49.5Y-29.5
X49.5Y-30.5
X49.5Y-31.5
X49.5Y-32.5
X49.5Y-33.5
X49.5Y-34.5
X49.556Y-144.024
X50.275Y-72.45
X50.425Y-176.125
X50.5Y-27.5
X50.5Y-28.5
X50.5Y-29.5
X50.5Y-30.5
X50.5Y-31.5
X50.5Y-32.5
X50.5Y-33.5
X50.5Y-34.5
X50.546Y-148.575
X50.6Y-14.425
X50.85Y-155.45
X50.86Y-104.45
X50.9Y-99.475
X50.9Y-113.35
X50.9Y-131.05
X50.9Y-134.525
X50.9Y-138.075
X50.9Y-141.5
X50.9Y-151.95
X50.923Y-110.086
X50.925Y-89.025
X50.925Y-92.45
X50.925Y-95.975
X50.925Y-106.5
X50.925Y-117.025
X50.925Y-158.95
X50.95Y-120.475
X50.95Y-164.625
X50.95Y-168.075
X50.976Y-124.101
X51.25Y-178.95
X51.5Y-27.5
X51.5Y-28.5
X51.5Y-29.5
X51.5Y-30.5
X51.5Y-31.5
X51.5Y-32.5
X51.5Y-33.5
X51.5Y-34.5
X51.5Y-49.5
X51.5Y-50.5
X51.5Y-51.5
X51.5Y-52.5
X51.5Y-53.5
X51.5Y-54.5
X51.5Y-55.5
X51.5Y-56.5
X51.679Y-129.432
X51.7Y-170.0
X51.9Y-72.4
X51.925Y-126.45
X51.975Y-86.55
X52.5Y-27.5
X52.5Y-28.5
X52.5Y-29.5
X52.5Y-30.5
X52.5Y-31.5
X52.5Y-32.5
X52.5Y-33.5
X52.5Y-34.5
X52.5Y-49.5
X52.5Y-50.5
X52.5Y-51.5
X52.5Y-52.5
X52.5Y-53.5
X52.5Y-54.5
X52.5Y-55.5
X52.5Y-56.5
X52.619Y-76.719
X52.85Y-123.45
X53.15Y-188.9
X53.5Y-27.5
X53.5Y-28.5
X53.5Y-29.5
X53.5Y-30.5
X53.5Y-31.5
X53.5Y-32.5
X53.5Y-33.5
X53.5Y-34.5
X53.5Y-49.5
X53.5Y-50.5
X53.5Y-51.5
X53.5Y-52.5
X53.5Y-53.5
X53.5Y-54.5
X53.5Y-55.5
X53.5Y-56.5
X53.7Y-73.575
X54.15Y-80.0
X54.25Y-81.05
X54.45Y-169.15
X54.5Y-27.5
X54.5Y-28.5
X54.5Y-29.5
X54.5Y-30.5
X54.5Y-31.5
X54.5Y-32.5
X54.5Y-33.5
X54.5Y-34.5
X54.5Y-49.5
X54.5Y-50.5
X54.5Y-51.5
X54.5Y-52.5
X54.5Y-53.5
X54.5Y-54.5
X54.5Y-55.5
X54.5Y-56.5
X54.65Y-125.55
X54.65Y-167.75
X55.5Y-27.5
X55.5Y-28.5
X55.5Y-29.5
X55.5Y-30.5
X55.5Y-31.5
X55.5Y-32.5
X55.5Y-33.5
X55.5Y-34.5
X55.5Y-49.5
X55.5Y-50.5
X55.5Y-51.5
X55.5Y-52.5
X55.5Y-53.5
X55.5Y-54.5
X55.5Y-55.5
X55.5Y-56.5
X55.65Y-73.15
X56.5Y-27.5
X56.5Y-28.5
X56.5Y-29.5
X56.5Y-30.5
X56.5Y-31.5
X56.5Y-32.5
X56.5Y-33.5
X56.5Y-34.5
X56.5Y-49.5
X56.5Y-50.5
X56.5Y-51.5
X56.5Y-52.5
X56.5Y-53.5
X56.5Y-54.5
X56.5Y-55.5
X56.5Y-56.5
X57.1Y-79.3
X57.15Y-140.75
X57.5Y-27.5
X57.5Y-28.5
X57.5Y-29.5
X57.5Y-30.5
X57.5Y-31.5
X57.5Y-32.5
X57.5Y-33.5
X57.5Y-34.5
X57.5Y-49.5
X57.5Y-50.5
X57.5Y-51.5
X57.5Y-52.5
X57.5Y-53.5
X57.5Y-54.5
X57.5Y-55.5
X57.5Y-56.5
X57.9Y-92.175
X58.025Y-97.5
X58.175Y-14.425
X58.5Y-27.5
X58.5Y-28.5
X58.5Y-29.5
X58.5Y-30.5
X58.5Y-31.5
X58.5Y-32.5
X58.5Y-33.5
X58.5Y-34.5
X58.5Y-49.5
X58.5Y-50.5
X58.5Y-51.5
X58.5Y-52.5
X58.5Y-53.5
X58.5Y-54.5
X58.5Y-55.5
X58.5Y-56.5
X58.727Y-73.773
X58.8Y-188.9
X59.251Y-134.049
X59.5Y-49.5
X59.5Y-50.5
X59.5Y-51.5
X59.5Y-52.5
X59.5Y-53.5
X59.5Y-54.5
X59.5Y-55.5
X59.5Y-56.5
X59.825Y-148.4
X59.825Y-151.4
X60.075Y-102.175
X60.075Y-107.675
X60.15Y-188.9
X60.45Y-128.05
X60.5Y-49.5
X60.5Y-50.5
X60.5Y-51.5
X60.5Y-52.5
X60.5Y-53.5
X60.5Y-54.5
X60.5Y-55.5
X60.5Y-56.5
X60.5Y-164.85
X60.5Y-169.1
X60.525Y-173.175
X60.525Y-174.725
X61.05Y-170.65
X61.5Y-38.8
X61.6Y-45.4
X62.379Y-180.709
X62.5Y-27.5
X62.5Y-28.5
X62.5Y-29.5
X62.5Y-30.5
X62.5Y-31.5
X62.5Y-32.5
X62.5Y-33.5
X62.5Y-34.5
X62.6Y-72.85
X62.85Y-74.35
X63.0Y-79.6
X63.05Y-113.725
X63.4Y-46.55
X63.5Y-27.5
X63.5Y-28.5
X63.5Y-29.5
X63.5Y-30.5
X63.5Y-31.5
X63.5Y-32.5
X63.5Y-33.5
X63.5Y-34.5
X63.5Y-106.875
X63.65Y-146.425
X63.999Y-144.676
X64.5Y-27.5
X64.5Y-28.5
X64.5Y-29.5
X64.5Y-30.5
X64.5Y-31.5
X64.5Y-32.5
X64.5Y-33.5
X64.5Y-34.5
X64.5Y-49.5
X64.5Y-50.5
X64.5Y-51.5
X64.5Y-52.5
X64.5Y-53.5
X64.5Y-54.5
X64.5Y-55.5
X64.5Y-56.5
X64.75Y-147.7
X65.2Y-163.95
X65.45Y-170.225
X65.5Y-27.5
X65.5Y-28.5
X65.5Y-29.5
X65.5Y-30.5
X65.5Y-31.5
X65.5Y-32.5
X65.5Y-33.5
X65.5Y-34.5
X65.5Y-49.5
X65.5Y-50.5
X65.5Y-51.5
X65.5Y-52.5
X65.5Y-53.5
X65.5Y-54.5
X65.5Y-55.5
X65.5Y-56.5
X65.625Y-188.9
X65.7Y-71.9
X65.7Y-120.25
X65.75Y-14.425
X66.15Y-102.2
X66.4Y-116.425
X66.5Y-27.5
X66.5Y-28.5
X66.5Y-29.5
X66.5Y-30.5
X66.5Y-31.5
X66.5Y-32.5
X66.5Y-33.5
X66.5Y-34.5
X66.5Y-49.5
X66.5Y-50.5
X66.5Y-51.5
X66.5Y-52.5
X66.5Y-53.5
X66.5Y-54.5
X66.5Y-55.5
X66.5Y-56.5
X66.825Y-154.575
X67.25Y-59.7
X67.25Y-145.9
X67.326Y-81.274
X67.5Y-27.5
X67.5Y-28.5
X67.5Y-29.5
X67.5Y-30.5
X67.5Y-31.5
X67.5Y-32.5
X67.5Y-33.5
X67.5Y-34.5
X67.5Y-49.5
X67.5Y-50.5
X67.5Y-51.5
X67.5Y-52.5
X67.5Y-53.5
X67.5Y-54.5
X67.5Y-55.5
X67.5Y-56.5
X67.575Y-152.025
X67.7Y-71.6
X67.725Y-160.8
X68.114Y-75.686
X68.4Y-59.7
X68.5Y-27.5
X68.5Y-28.5
X68.5Y-29.5
X68.5Y-30.5
X68.5Y-31.5
X68.5Y-32.5
X68.5Y-33.5
X68.5Y-34.5
X68.5Y-49.5
X68.5Y-50.5
X68.5Y-51.5
X68.5Y-52.5
X68.5Y-53.5
X68.5Y-54.5
X68.5Y-55.5
X68.5Y-56.5
X68.525Y-122.035
X68.725Y-178.1
X68.725Y-179.4
X68.8Y-143.4
X69.15Y-170.25
X69.25Y-160.375
X69.3Y-124.425
X69.375Y-178.75
X69.4Y-121.35
X69.45Y-59.7
X69.5Y-27.5
X69.5Y-28.5
X69.5Y-29.5
X69.5Y-30.5
X69.5Y-31.5
X69.5Y-32.5
X69.5Y-33.5
X69.5Y-34.5
X69.5Y-49.5
X69.5Y-50.5
X69.5Y-51.5
X69.5Y-52.5
X69.5Y-53.5
X69.5Y-54.5
X69.5Y-55.5
X69.5Y-56.5
X70.325Y-112.775
X70.35Y-84.05
X70.5Y-27.5
X70.5Y-28.5
X70.5Y-29.5
X70.5Y-30.5
X70.5Y-31.5
X70.5Y-32.5
X70.5Y-33.5
X70.5Y-34.5
X70.5Y-49.5
X70.5Y-50.5
X70.5Y-51.5
X70.5Y-52.5
X70.5Y-53.5
X70.5Y-54.5
X70.5Y-55.5
X70.5Y-56.5
X70.5Y-59.7
X70.825Y-176.55
X70.9Y-111.2
X71.15Y-70.95
X71.15Y-123.2
X71.223Y-110.4
X71.5Y-27.5
X71.5Y-28.5
X71.5Y-29.5
X71.5Y-30.5
X71.5Y-31.5
X71.5Y-32.5
X71.5Y-33.5
X71.5Y-34.5
X71.5Y-49.5
X71.5Y-50.5
X71.5Y-51.5
X71.5Y-52.5
X71.5Y-53.5
X71.5Y-54.5
X71.5Y-55.5
X71.5Y-56.5
X71.6Y-59.7
X71.6Y-163.9
X71.7Y-149.7
X71.7Y-176.975
X71.874Y-129.278
X72.0Y-73.35
X72.2Y-124.975
X72.39Y-125.73
X72.5Y-49.5
X72.5Y-50.5
X72.5Y-51.5
X72.5Y-52.5
X72.5Y-53.5
X72.5Y-54.5
X72.5Y-55.5
X72.5Y-56.5
X72.7Y-117.75
X72.725Y-133.525
X72.755Y-118.614
X72.758Y-119.364
X72.775Y-116.8
X72.85Y-134.825
X72.875Y-114.167
X72.9Y-121.5
X73.025Y-150.184
X73.025Y-188.9
X73.15Y-109.95
X73.2Y-155.35
X73.3Y-61.0
X73.3Y-111.65
X73.375Y-14.425
X73.425Y-149.55
X73.45Y-72.8
X73.45Y-152.525
X73.5Y-49.5
X73.5Y-50.5
X73.5Y-51.5
X73.5Y-52.5
X73.5Y-53.5
X73.5Y-54.5
X73.5Y-55.5
X73.51Y-56.425
X73.625Y-104.85
X73.65Y-115.8
X73.7Y-158.05
X73.825Y-91.85
X73.875Y-89.5
X73.875Y-94.15
X74.1Y-111.6
X74.135Y-96.159
X74.138Y-114.26
X74.15Y-122.875
X74.2Y-38.8
X74.275Y-100.675
X74.7Y-45.3
X74.85Y-104.55
X74.9Y-74.55
X74.9Y-87.4
X75.0Y-132.875
X75.05Y-162.25
X75.3Y-97.9
X75.5Y-27.5
X75.5Y-28.5
X75.5Y-29.5
X75.5Y-30.5
X75.5Y-31.5
X75.5Y-32.5
X75.5Y-33.5
X75.5Y-34.5
X75.5Y-71.85
X75.625Y-181.275
X75.7Y-59.55
X75.7Y-121.45
X75.9Y-104.525
X75.95Y-133.475
X76.159Y-127.6
X76.25Y-139.725
X76.275Y-125.625
X76.35Y-46.55
X76.5Y-27.5
X76.5Y-28.5
X76.5Y-29.5
X76.5Y-30.5
X76.5Y-31.5
X76.5Y-32.5
X76.5Y-33.5
X76.5Y-34.5
X76.5Y-122.9
X76.675Y-121.75
X76.825Y-181.6
X76.899Y-114.102
X76.9Y-104.525
X77.075Y-171.975
X77.075Y-172.8
X77.15Y-118.775
X77.3Y-80.65
X77.325Y-152.125
X77.325Y-152.975
X77.325Y-178.4
X77.5Y-27.5
X77.5Y-28.5
X77.5Y-29.5
X77.5Y-30.5
X77.5Y-31.5
X77.5Y-32.5
X77.5Y-33.5
X77.5Y-34.5
X77.5Y-49.5
X77.5Y-50.5
X77.5Y-51.5
X77.5Y-52.5
X77.5Y-53.5
X77.5Y-54.5
X77.5Y-55.5
X77.5Y-56.425
X77.5Y-82.6
X77.625Y-122.925
X77.65Y-118.1
X77.697Y-116.9
X77.7Y-137.7
X77.75Y-114.15
X77.8Y-179.025
X77.825Y-177.7
X78.05Y-132.875
X78.4Y-141.675
X78.5Y-27.5
X78.5Y-28.5
X78.5Y-29.5
X78.5Y-30.5
X78.5Y-31.5
X78.5Y-32.5
X78.5Y-33.5
X78.5Y-34.5
X78.5Y-49.5
X78.5Y-50.5
X78.5Y-51.5
X78.5Y-52.5
X78.5Y-53.5
X78.5Y-54.5
X78.5Y-55.5
X78.5Y-56.425
X78.55Y-114.55
X78.575Y-76.0
X78.575Y-100.65
X78.836Y-137.764
X79.225Y-158.125
X79.25Y-73.75
X79.25Y-164.025
X79.4Y-125.875
X79.425Y-170.35
X79.5Y-27.5
X79.5Y-28.5
X79.5Y-29.5
X79.5Y-30.5
X79.5Y-31.5
X79.5Y-32.5
X79.5Y-33.5
X79.5Y-34.5
X79.5Y-49.5
X79.5Y-50.5
X79.5Y-51.5
X79.5Y-52.5
X79.5Y-53.5
X79.5Y-54.5
X79.5Y-55.5
X79.5Y-56.425
X79.575Y-132.925
X79.625Y-104.475
X80.264Y-59.944
X80.5Y-27.5
X80.5Y-28.5
X80.5Y-29.5
X80.5Y-30.5
X80.5Y-31.5
X80.5Y-32.5
X80.5Y-33.5
X80.5Y-34.5
X80.5Y-49.5
X80.5Y-50.5
X80.5Y-51.5
X80.5Y-52.5
X80.5Y-53.5
X80.5Y-54.5
X80.5Y-55.5
X80.5Y-56.425
X80.65Y-188.9
X80.75Y-14.425
X80.774Y-122.426
X80.9Y-121.575
X81.075Y-126.05
X81.075Y-137.5
X81.1Y-132.9
X81.151Y-115.699
X81.25Y-118.325
X81.275Y-120.825
X81.339Y-117.402
X81.5Y-27.5
X81.5Y-28.5
X81.5Y-29.5
X81.5Y-30.5
X81.5Y-31.5
X81.5Y-32.5
X81.5Y-33.5
X81.5Y-34.5
X81.5Y-49.5
X81.5Y-50.5
X81.5Y-51.5
X81.5Y-52.5
X81.5Y-53.5
X81.5Y-54.5
X81.5Y-55.5
X81.5Y-56.425
X81.7Y-112.375
X82.025Y-81.625
X82.053Y-161.475
X82.4Y-110.675
X82.5Y-27.5
X82.5Y-28.5
X82.5Y-29.5
X82.5Y-30.5
X82.5Y-31.5
X82.5Y-32.5
X82.5Y-33.5
X82.5Y-34.5
X82.5Y-49.5
X82.5Y-50.5
X82.5Y-51.5
X82.5Y-52.5
X82.5Y-53.5
X82.5Y-54.5
X82.5Y-55.5
X82.5Y-56.425
X82.55Y-123.2
X82.625Y-132.825
X82.688Y-87.287
X83.275Y-111.1
X83.5Y-27.5
X83.5Y-28.5
X83.5Y-29.5
X83.5Y-30.5
X83.5Y-31.5
X83.5Y-32.5
X83.5Y-33.5
X83.5Y-34.5
X83.5Y-49.5
X83.5Y-50.5
X83.5Y-51.5
X83.5Y-52.5
X83.5Y-53.5
X83.5Y-54.5
X83.5Y-55.5
X83.5Y-56.425
X83.525Y-113.775
X83.601Y-125.2
X83.8Y-104.7
X84.15Y-132.825
X84.4Y-108.25
X84.5Y-27.5
X84.5Y-28.5
X84.5Y-29.5
X84.5Y-30.5
X84.5Y-31.5
X84.5Y-32.5
X84.5Y-33.5
X84.5Y-34.5
X84.5Y-49.5
X84.5Y-50.5
X84.5Y-51.5
X84.5Y-52.5
X84.5Y-53.5
X84.5Y-54.5
X84.5Y-55.5
X84.5Y-56.425
X84.675Y-100.75
X84.725Y-103.025
X84.95Y-158.9
X84.95Y-163.925
X85.5Y-49.5
X85.5Y-50.5
X85.5Y-51.5
X85.5Y-52.5
X85.5Y-53.5
X85.5Y-54.5
X85.5Y-55.5
X85.5Y-56.425
X85.5Y-168.525
X85.5Y-177.575
X85.775Y-122.325
X85.8Y-87.2
X85.875Y-113.5
X85.875Y-138.925
X85.95Y-150.25
X86.4Y-67.287
X86.5Y-49.5
X86.5Y-50.5
X86.5Y-51.5
X86.5Y-52.5
X86.5Y-53.5
X86.5Y-54.5
X86.5Y-55.5
X86.5Y-56.425
X86.7Y-80.75
X86.767Y-115.65
X86.95Y-118.275
X87.2Y-117.0
X87.3Y-38.7
X87.4Y-182.125
X87.675Y-125.025
X87.7Y-45.3
X87.725Y-134.325
X87.75Y-176.15
X87.866Y-115.378
X88.2Y-14.425
X88.2Y-188.9
X88.392Y-114.046
X88.5Y-27.5
X88.5Y-28.5
X88.5Y-29.5
X88.5Y-30.5
X88.5Y-31.5
X88.5Y-32.5
X88.5Y-33.5
X88.5Y-34.5
X88.525Y-119.0
X88.525Y-128.65
X88.525Y-137.6
X88.8Y-86.925
X89.175Y-129.275
X89.2Y-119.75
X89.2Y-138.625
X89.45Y-166.95
X89.5Y-27.5
X89.5Y-28.5
X89.5Y-29.5
X89.5Y-30.5
X89.5Y-31.5
X89.5Y-32.5
X89.5Y-33.5
X89.5Y-34.5
X89.6Y-46.55
X89.825Y-119.075
X89.825Y-128.7
X89.85Y-137.6
X89.85Y-154.525
X90.075Y-132.55
X90.275Y-123.175
X90.3Y-159.525
X90.375Y-164.225
X90.5Y-27.5
X90.5Y-28.5
X90.5Y-29.5
X90.5Y-30.5
X90.5Y-31.5
X90.5Y-32.5
X90.5Y-33.5
X90.5Y-34.5
X90.5Y-49.5
X90.5Y-50.5
X90.5Y-51.5
X90.5Y-52.5
X90.5Y-53.5
X90.5Y-54.5
X90.5Y-55.5
X90.5Y-56.425
X90.625Y-59.925
X90.725Y-172.7
X90.825Y-170.975
X91.1Y-95.0
X91.475Y-161.375
X91.5Y-27.5
X91.5Y-28.5
X91.5Y-29.5
X91.5Y-30.5
X91.5Y-31.5
X91.5Y-32.5
X91.5Y-33.5
X91.5Y-34.5
X91.5Y-49.5
X91.5Y-50.5
X91.5Y-51.5
X91.5Y-52.5
X91.5Y-53.5
X91.5Y-54.5
X91.5Y-55.5
X91.5Y-56.425
X91.55Y-178.825
X91.8Y-87.0
X92.1Y-102.0
X92.325Y-81.625
X92.5Y-27.5
X92.5Y-28.5
X92.5Y-29.5
X92.5Y-30.5
X92.5Y-31.5
X92.5Y-32.5
X92.5Y-33.5
X92.5Y-34.5
X92.5Y-49.5
X92.5Y-50.5
X92.5Y-51.5
X92.5Y-52.5
X92.5Y-53.5
X92.5Y-54.5
X92.5Y-55.5
X92.5Y-56.425
X92.525Y-155.35
X92.85Y-144.7
X93.0Y-109.7
X93.05Y-119.975
X93.05Y-129.425
X93.1Y-138.775
X93.225Y-181.7
X93.5Y-27.5
X93.5Y-28.5
X93.5Y-29.5
X93.5Y-30.5
X93.5Y-31.5
X93.5Y-32.5
X93.5Y-33.5
X93.5Y-34.5
X93.5Y-49.5
X93.5Y-50.5
X93.5Y-51.5
X93.5Y-52.5
X93.5Y-53.5
X93.5Y-54.5
X93.5Y-55.5
X93.5Y-56.425
X93.65Y-103.325
X93.662Y-101.825
X93.662Y-102.55
X94.0Y-109.7
X94.5Y-27.5
X94.5Y-28.5
X94.5Y-29.5
X94.5Y-30.5
X94.5Y-31.5
X94.5Y-32.5
X94.5Y-33.5
X94.5Y-34.5
X94.5Y-49.5
X94.5Y-50.5
X94.5Y-51.5
X94.5Y-52.5
X94.5Y-53.5
X94.5Y-54.5
X94.5Y-55.5
X94.5Y-56.425
X94.5Y-91.95
X94.8Y-161.625
X94.975Y-157.475
X95.225Y-85.8
X95.475Y-14.425
X95.5Y-27.5
X95.5Y-28.5
X95.5Y-29.5
X95.5Y-30.5
X95.5Y-31.5
X95.5Y-32.5
X95.5Y-33.5
X95.5Y-34.5
X95.5Y-49.5
X95.5Y-50.5
X95.5Y-51.5
X95.5Y-52.5
X95.5Y-53.5
X95.5Y-54.5
X95.5Y-55.5
X95.5Y-56.425
X95.725Y-188.9
X95.8Y-83.3
X95.906Y-127.694
X95.925Y-129.2
X95.95Y-46.5
X95.95Y-120.25
X95.975Y-124.725
X95.975Y-135.2
X95.975Y-139.675
X95.975Y-142.625
X95.987Y-117.2
X95.987Y-118.7
X95.987Y-123.2
X95.987Y-133.7
X95.987Y-141.2
X95.987Y-147.1
X96.0Y-114.2
X96.0Y-115.725
X96.0Y-121.75
X96.0Y-126.225
X96.0Y-130.725
X96.0Y-136.675
X96.0Y-144.125
X96.0Y-145.6
X96.0Y-138.225
X96.025Y-132.2
X96.05Y-88.475
X96.076Y-148.506
X96.3Y-172.05
X96.4Y-106.7
X96.5Y-27.5
X96.5Y-28.5
X96.5Y-29.5
X96.5Y-30.5
X96.5Y-31.5
X96.5Y-32.5
X96.5Y-33.5
X96.5Y-34.5
X96.5Y-49.5
X96.5Y-50.5
X96.5Y-51.5
X96.5Y-52.5
X96.5Y-53.5
X96.5Y-54.5
X96.5Y-55.5
X96.5Y-56.425
X96.5Y-80.65
X96.55Y-176.65
X96.754Y-69.939
X97.05Y-183.35
X97.075Y-101.475
X97.5Y-27.5
X97.5Y-28.5
X97.5Y-29.5
X97.5Y-30.5
X97.5Y-31.5
X97.5Y-32.5
X97.5Y-33.5
X97.5Y-34.5
X97.5Y-49.5
X97.5Y-50.5
X97.5Y-51.5
X97.5Y-52.5
X97.5Y-53.5
X97.5Y-54.5
X97.5Y-55.5
X97.5Y-56.425
X98.5Y-49.5
X98.5Y-50.5
X98.5Y-51.5
X98.5Y-52.5
X98.5Y-53.5
X98.5Y-54.5
X98.5Y-55.5
X98.5Y-56.425
X98.875Y-68.8
X98.953Y-69.997
X99.5Y-49.5
X99.5Y-50.5
X99.5Y-51.5
X99.5Y-52.5
X99.5Y-53.5
X99.5Y-54.5
X99.5Y-55.5
X99.5Y-56.425
X99.725Y-69.025
X99.825Y-160.775
X99.975Y-175.175
X100.525Y-83.425
X100.6Y-69.075
X100.65Y-45.25
X101.35Y-89.9
X101.45Y-159.475
X102.4Y-79.7
X103.025Y-14.425
X103.05Y-105.95
X103.15Y-188.9
X103.175Y-155.35
X103.275Y-84.336
X103.349Y-52.775
X103.425Y-79.7
X103.628Y-98.573
X103.675Y-173.75
X103.8Y-102.525
X103.825Y-170.725
X103.95Y-77.45
X104.05Y-27.1
X104.175Y-87.0
X104.225Y-79.225
X104.25Y-95.55
X104.25Y-162.7
X105.5Y-92.925
X105.725Y-114.175
X105.725Y-145.6
X105.749Y-115.699
X105.75Y-117.225
X105.75Y-124.7
X105.75Y-126.225
X105.75Y-129.175
X105.75Y-130.725
X105.75Y-132.2
X105.75Y-133.725
X105.75Y-135.2
X105.75Y-136.675
X105.75Y-139.725
X105.75Y-142.625
X105.75Y-144.125
X105.75Y-147.1
X105.75Y-148.6
X105.775Y-118.7
X105.775Y-120.225
X105.775Y-121.75
X105.775Y-127.725
X105.775Y-138.2
X105.775Y-141.2
X105.8Y-123.225
X106.575Y-54.85
X106.65Y-175.075
X106.664Y-80.214
X107.575Y-25.625
X107.775Y-18.0
X108.15Y-167.675
X109.325Y-158.4
X109.375Y-180.4
X109.4Y-166.975
X110.1Y-157.4
X110.65Y-188.9
X110.8Y-14.425
X111.075Y-158.4
X111.475Y-17.975
X112.075Y-175.05
X112.675Y-30.625
X113.001Y-168.655
X113.575Y-30.625
X114.5Y-30.65
X116.45Y-55.0
X117.35Y-156.95
X117.35Y-157.825
X117.35Y-158.675
X117.425Y-172.3
X118.4Y-14.424
X118.425Y-61.375
X118.425Y-74.1
X118.426Y-20.899
X118.426Y-28.224
X118.426Y-36.849
X118.426Y-49.911
X118.426Y-53.274
X118.426Y-80.974
X118.426Y-88.674
X118.426Y-96.199
X118.426Y-103.349
X118.426Y-110.799
X118.426Y-118.324
X118.426Y-125.849
X118.426Y-133.299
X118.426Y-140.849
X118.426Y-148.324
X118.426Y-155.2
X118.426Y-156.5
X118.426Y-158.299
X118.426Y-165.774
X118.426Y-173.274
X118.426Y-180.849
X118.426Y-188.9
T2
X82.14Y-62.09
X82.14Y-63.34
X82.19Y-64.59
X83.39Y-62.79
X83.39Y-63.94
X84.05Y-76.85
X84.05Y-77.95
X84.49Y-62.74
X84.54Y-63.94
X85.35Y-76.85
X85.35Y-77.95
X91.96Y-62.76
X92.01Y-63.96
X93.11Y-62.76
X93.11Y-63.91
X93.95Y-76.65
X93.95Y-77.75
X94.31Y-62.11
X94.36Y-63.36
X94.36Y-64.61
X95.25Y-76.65
X95.25Y-77.75
T3
X28.95Y-56.3
X29.653Y-54.603
X29.653Y-57.997
X31.35Y-53.9
X31.35Y-58.7
X33.047Y-54.603
X33.047Y-57.997
X33.75Y-56.3
X53.125Y-174.95
X53.828Y-173.253
X53.828Y-176.647
X55.525Y-172.55
X55.525Y-177.35
X57.222Y-173.253
X57.222Y-176.647
X57.925Y-174.95
X96.725Y-167.975
X97.428Y-166.278
X97.428Y-169.672
X97.7Y-109.25
X98.403Y-107.553
X98.403Y-110.947
X99.125Y-165.575
X99.125Y-170.375
X100.1Y-106.85
X100.1Y-111.65
X100.822Y-166.278
X100.822Y-169.672
X101.525Y-167.975
X101.797Y-107.553
X101.797Y-110.947
X102.5Y-109.25
X108.0Y-56.3
X108.703Y-54.603
X108.703Y-57.997
X110.4Y-53.9
X110.4Y-58.7
X112.097Y-54.603
X112.097Y-57.997
X112.8Y-56.3
T5
X89.45Y-182.9
X94.45Y-182.9
T6
X25.475Y-75.575
X25.475Y-78.075
X25.475Y-80.575
X31.165Y-109.585
X31.165Y-112.085
X31.165Y-114.585
X31.165Y-117.085
X31.165Y-119.585
X31.165Y-122.085
X31.165Y-129.477
X31.165Y-131.977
X31.165Y-134.477
X31.165Y-136.977
X31.165Y-139.477
X31.165Y-141.977
X31.165Y-149.075
X31.165Y-151.575
X31.165Y-154.075
X31.165Y-156.575
X31.165Y-159.075
X31.165Y-161.575
X31.165Y-164.075
X31.375Y-90.361
X31.375Y-92.861
X31.375Y-95.361
X31.375Y-97.861
X31.375Y-100.361
X31.375Y-102.861
X47.033Y-186.427
X49.533Y-186.427
X52.033Y-186.427
X54.533Y-186.427
X73.731Y-145.4
X76.231Y-145.4
X78.731Y-145.4
X81.231Y-145.4
X83.731Y-145.4
X86.231Y-145.4
X105.453Y-186.173
X107.953Y-186.173
X110.453Y-186.173
X112.953Y-186.173
T7
X38.45Y-61.618
X38.45Y-66.618
X65.241Y-186.427
X67.741Y-186.427
X77.941Y-186.427
X78.525Y-154.425
X80.441Y-186.427
X81.025Y-154.425
X112.8Y-121.425
X112.8Y-123.965
X112.8Y-126.505
X112.8Y-129.045
X112.8Y-131.585
X112.8Y-134.125
X112.8Y-140.675
X112.8Y-143.215
X112.8Y-145.755
X112.8Y-148.295
X112.8Y-150.835
X112.8Y-153.375
X112.875Y-102.3
X112.875Y-104.84
X112.875Y-107.38
X112.875Y-109.92
X112.875Y-112.46
X112.875Y-115.0
X112.96Y-83.095
X112.96Y-85.635
X112.96Y-88.175
X112.96Y-90.715
X112.96Y-93.255
X112.96Y-95.795
X115.34Y-121.425
X115.34Y-123.965
X115.34Y-126.505
X115.34Y-129.045
X115.34Y-131.585
X115.34Y-134.125
X115.34Y-140.675
X115.34Y-143.215
X115.34Y-145.755
X115.34Y-148.295
X115.34Y-150.835
X115.34Y-153.375
X115.415Y-102.3
X115.415Y-104.84
X115.415Y-107.38
X115.415Y-109.92
X115.415Y-112.46
X115.415Y-115.0
X115.5Y-83.095
X115.5Y-85.635
X115.5Y-88.175
X115.5Y-90.715
X115.5Y-93.255
X115.5Y-95.795
X116.001Y-19.843
X116.001Y-22.343
T8
X45.466Y-20.828
X101.346Y-20.828
T9
X26.414Y-38.06
X26.414Y-43.27
X26.414Y-48.48
X27.275Y-174.08
X27.275Y-179.29
X27.275Y-184.5
X37.214Y-38.06
X37.214Y-43.27
X37.214Y-48.48
X38.075Y-174.08
X38.075Y-179.29
X38.075Y-184.5
X104.875Y-62.805
X104.875Y-68.015
X104.875Y-73.225
X104.95Y-38.1
X104.95Y-43.31
X104.95Y-48.52
X115.675Y-62.805
X115.675Y-68.015
X115.675Y-73.225
X115.75Y-38.1
X115.75Y-43.31
X115.75Y-48.52
T10
X31.35Y-56.3
X55.525Y-174.95
X99.125Y-167.975
X100.1Y-109.25
X110.4Y-56.3
T4
G00X88.45Y-185.95
M15
G01X88.45Y-185.25
M16
G05
G00X95.45Y-185.25
M15
G01X95.45Y-185.95
M16
G05
T0
M30
