G04 #@! TF.GenerationSoftware,KiCad,Pcbnew,(6.0.4)*
G04 #@! TF.CreationDate,2022-11-09T23:51:20-08:00*
G04 #@! TF.ProjectId,BMS_02,424d535f-3032-42e6-9b69-6361645f7063,rev?*
G04 #@! TF.SameCoordinates,Original*
G04 #@! TF.FileFunction,Soldermask,Bot*
G04 #@! TF.FilePolarity,Negative*
%FSLAX46Y46*%
G04 Gerber Fmt 4.6, Leading zero omitted, Abs format (unit mm)*
G04 Created by KiCad (PCBNEW (6.0.4)) date 2022-11-09 23:51:20*
%MOMM*%
%LPD*%
G01*
G04 APERTURE LIST*
G04 Aperture macros list*
%AMRoundRect*
0 Rectangle with rounded corners*
0 $1 Rounding radius*
0 $2 $3 $4 $5 $6 $7 $8 $9 X,Y pos of 4 corners*
0 Add a 4 corners polygon primitive as box body*
4,1,4,$2,$3,$4,$5,$6,$7,$8,$9,$2,$3,0*
0 Add four circle primitives for the rounded corners*
1,1,$1+$1,$2,$3*
1,1,$1+$1,$4,$5*
1,1,$1+$1,$6,$7*
1,1,$1+$1,$8,$9*
0 Add four rect primitives between the rounded corners*
20,1,$1+$1,$2,$3,$4,$5,0*
20,1,$1+$1,$4,$5,$6,$7,0*
20,1,$1+$1,$6,$7,$8,$9,0*
20,1,$1+$1,$8,$9,$2,$3,0*%
G04 Aperture macros list end*
%ADD10C,1.000000*%
%ADD11C,1.550000*%
%ADD12O,1.300000X2.000000*%
%ADD13C,2.500000*%
%ADD14O,2.500000X2.500000*%
%ADD15C,3.670000*%
%ADD16RoundRect,0.300000X0.725000X-0.600000X0.725000X0.600000X-0.725000X0.600000X-0.725000X-0.600000X0*%
%ADD17O,2.050000X1.800000*%
%ADD18RoundRect,0.300000X0.600000X0.725000X-0.600000X0.725000X-0.600000X-0.725000X0.600000X-0.725000X0*%
%ADD19O,1.800000X2.050000*%
%ADD20RoundRect,0.300000X0.600000X0.750000X-0.600000X0.750000X-0.600000X-0.750000X0.600000X-0.750000X0*%
%ADD21O,1.800000X2.100000*%
%ADD22RoundRect,0.300000X-0.750000X0.600000X-0.750000X-0.600000X0.750000X-0.600000X0.750000X0.600000X0*%
%ADD23O,2.100000X1.800000*%
%ADD24RoundRect,0.050000X-0.850000X-0.850000X0.850000X-0.850000X0.850000X0.850000X-0.850000X0.850000X0*%
%ADD25O,1.800000X1.800000*%
%ADD26C,0.900000*%
%ADD27C,6.500000*%
%ADD28RoundRect,0.050000X1.000000X-1.000000X1.000000X1.000000X-1.000000X1.000000X-1.000000X-1.000000X0*%
%ADD29C,2.100000*%
G04 APERTURE END LIST*
D10*
X22850000Y-14425000D02*
X22850000Y-188900000D01*
X118425000Y-14425000D02*
X22850000Y-14425000D01*
X118425000Y-14425000D02*
X118425000Y-188900000D01*
X22850000Y-188900000D02*
X118425000Y-188900000D01*
D11*
X94450000Y-182900000D03*
D12*
X95450000Y-185600000D03*
X88450000Y-185600000D03*
D11*
X89450000Y-182900000D03*
D13*
X101346000Y-20828000D03*
D14*
X45466000Y-20828000D03*
D15*
X38075000Y-184500000D03*
X38075000Y-174080000D03*
X27275000Y-174080000D03*
X27275000Y-184500000D03*
X27275000Y-179290000D03*
X38075000Y-179290000D03*
X115675000Y-68015000D03*
X104875000Y-62805000D03*
X115675000Y-73225000D03*
X115675000Y-62805000D03*
X104875000Y-68015000D03*
X104875000Y-73225000D03*
X26414000Y-38060000D03*
X26414000Y-48480000D03*
X37214000Y-38060000D03*
X26414000Y-43270000D03*
X37214000Y-43270000D03*
X37214000Y-48480000D03*
D16*
X31165000Y-164075000D03*
D17*
X31165000Y-161575000D03*
X31165000Y-159075000D03*
X31165000Y-156575000D03*
X31165000Y-154075000D03*
X31165000Y-151575000D03*
X31165000Y-149075000D03*
D16*
X31165000Y-141977000D03*
D17*
X31165000Y-139477000D03*
X31165000Y-136977000D03*
X31165000Y-134477000D03*
X31165000Y-131977000D03*
X31165000Y-129477000D03*
D16*
X31165000Y-122085000D03*
D17*
X31165000Y-119585000D03*
X31165000Y-117085000D03*
X31165000Y-114585000D03*
X31165000Y-112085000D03*
X31165000Y-109585000D03*
D18*
X54533000Y-186427000D03*
D19*
X52033000Y-186427000D03*
X49533000Y-186427000D03*
X47033000Y-186427000D03*
D20*
X80441000Y-186427000D03*
D21*
X77941000Y-186427000D03*
D22*
X116001000Y-19843000D03*
D23*
X116001000Y-22343000D03*
D20*
X67741000Y-186427000D03*
D21*
X65241000Y-186427000D03*
D24*
X112800000Y-140675000D03*
D25*
X115340000Y-140675000D03*
X112800000Y-143215000D03*
X115340000Y-143215000D03*
X112800000Y-145755000D03*
X115340000Y-145755000D03*
X112800000Y-148295000D03*
X115340000Y-148295000D03*
X112800000Y-150835000D03*
X115340000Y-150835000D03*
X112800000Y-153375000D03*
X115340000Y-153375000D03*
D24*
X112800000Y-121425000D03*
D25*
X115340000Y-121425000D03*
X112800000Y-123965000D03*
X115340000Y-123965000D03*
X112800000Y-126505000D03*
X115340000Y-126505000D03*
X112800000Y-129045000D03*
X115340000Y-129045000D03*
X112800000Y-131585000D03*
X115340000Y-131585000D03*
X112800000Y-134125000D03*
X115340000Y-134125000D03*
D24*
X112875000Y-102300000D03*
D25*
X115415000Y-102300000D03*
X112875000Y-104840000D03*
X115415000Y-104840000D03*
X112875000Y-107380000D03*
X115415000Y-107380000D03*
X112875000Y-109920000D03*
X115415000Y-109920000D03*
X112875000Y-112460000D03*
X115415000Y-112460000D03*
X112875000Y-115000000D03*
X115415000Y-115000000D03*
D24*
X112960000Y-83095000D03*
D25*
X115500000Y-83095000D03*
X112960000Y-85635000D03*
X115500000Y-85635000D03*
X112960000Y-88175000D03*
X115500000Y-88175000D03*
X112960000Y-90715000D03*
X115500000Y-90715000D03*
X112960000Y-93255000D03*
X115500000Y-93255000D03*
X112960000Y-95795000D03*
X115500000Y-95795000D03*
D18*
X112953000Y-186173000D03*
D19*
X110453000Y-186173000D03*
X107953000Y-186173000D03*
X105453000Y-186173000D03*
D18*
X86231000Y-145400000D03*
D19*
X83731000Y-145400000D03*
X81231000Y-145400000D03*
X78731000Y-145400000D03*
X76231000Y-145400000D03*
X73731000Y-145400000D03*
D16*
X31375000Y-102861000D03*
D17*
X31375000Y-100361000D03*
X31375000Y-97861000D03*
X31375000Y-95361000D03*
X31375000Y-92861000D03*
X31375000Y-90361000D03*
D26*
X100822056Y-169672056D03*
X96725000Y-167975000D03*
X97427944Y-169672056D03*
X100822056Y-166277944D03*
D27*
X99125000Y-167975000D03*
D26*
X99125000Y-170375000D03*
X99125000Y-165575000D03*
X101525000Y-167975000D03*
X97427944Y-166277944D03*
D27*
X55525000Y-174950000D03*
D26*
X57925000Y-174950000D03*
X53827944Y-176647056D03*
X55525000Y-177350000D03*
X57222056Y-176647056D03*
X53125000Y-174950000D03*
X57222056Y-173252944D03*
X53827944Y-173252944D03*
X55525000Y-172550000D03*
X108702944Y-57997056D03*
X110400000Y-53900000D03*
X108702944Y-54602944D03*
X110400000Y-58700000D03*
D27*
X110400000Y-56300000D03*
D26*
X112097056Y-54602944D03*
X112097056Y-57997056D03*
X108000000Y-56300000D03*
X112800000Y-56300000D03*
X100100000Y-111650000D03*
X98402944Y-107552944D03*
X100100000Y-106850000D03*
X97700000Y-109250000D03*
X102500000Y-109250000D03*
X101797056Y-107552944D03*
X98402944Y-110947056D03*
D27*
X100100000Y-109250000D03*
D26*
X101797056Y-110947056D03*
X28950000Y-56300000D03*
X33047056Y-54602944D03*
D27*
X31350000Y-56300000D03*
D26*
X33047056Y-57997056D03*
X29652944Y-54602944D03*
X31350000Y-53900000D03*
X33750000Y-56300000D03*
X29652944Y-57997056D03*
X31350000Y-58700000D03*
D20*
X81025000Y-154425000D03*
D21*
X78525000Y-154425000D03*
D15*
X115750000Y-48520000D03*
X115750000Y-38100000D03*
X104950000Y-48520000D03*
X104950000Y-38100000D03*
X115750000Y-43310000D03*
X104950000Y-43310000D03*
D28*
X38450000Y-66617677D03*
D29*
X38450000Y-61617677D03*
D16*
X25475000Y-80575000D03*
D17*
X25475000Y-78075000D03*
X25475000Y-75575000D03*
M02*
